<svg xmlns="http://www.w3.org/2000/svg" xmlns:svgjs="http://svgjs.dev/svgjs" xmlns:xlink="http://www.w3.org/1999/xlink" width="128" height="128" version="1.1" viewBox="0 0 128 128"><g transform="matrix(0.8046875,0,0,0.8046875,12.596412752533297,7.8938130040322605)"><svg xmlns="http://www.w3.org/2000/svg" xmlns:xlink="http://www.w3.org/1999/xlink" width="128" height="139" data-background-color="#ffffff" preserveAspectRatio="xMidYMid meet" viewBox="0 0 142 155"><g id="tight-bounds" transform="matrix(1,0,0,1,-0.13291855203620173,0.25)"><svg width="142.266" height="154.5" viewBox="0 0 142.266 154.5"><g><svg width="142.266" height="154.5" viewBox="0 0 142.266 154.5"><g><svg width="142.266" height="154.5" viewBox="0 0 142.266 154.5"><g id="textblocktransform"><svg id="textblock" width="142.266" height="154.5" viewBox="0 0 142.266 154.5"><g><svg width="142.266" height="154.5" viewBox="0 0 142.266 154.5"><g transform="matrix(1,0,0,1,0,0)"><svg width="142.266" height="154.5" data-palette-color="#1eb854" viewBox="0.78 -31.93 29.81 32.37"><path id="text-0" fill="#1eb854" d="M30.59-25.88L30.59-25.88 30.59-1.61Q27.86 0.44 23.58 0.44L23.58 0.44Q20.29 0.44 18.36-0.9L18.36-0.9Q16.33-2.27 16.33-4.86L16.33-4.86 16.33-9.69 18.07-9.69Q19.07-9.69 19.32-9.95 19.58-10.21 19.58-10.79L19.58-10.79 11.91-10.79Q11.91-10.21 12.13-9.95 12.35-9.69 13.18-9.69L13.18-9.69 15.04-9.69 15.04-1.61Q13.16-0.39 11.47 0.02 9.79 0.44 8.03 0.44L8.03 0.44Q4.74 0.44 2.81-0.9L2.81-0.9Q0.78-2.27 0.78-4.86L0.78-4.86 0.78-29.15Q2.05-30.49 3.92-31.21 5.79-31.93 7.81-31.93L7.81-31.93Q10.77-31.93 12.82-30.47L12.82-30.47Q15.04-28.81 15.04-25.88L15.04-25.88 15.04-21.53 18.14-21.53Q18.14-22.17 17.91-22.4 17.68-22.63 17.16-22.63L17.16-22.63 16.33-22.63 16.33-29.15Q17.6-30.49 19.47-31.21 21.34-31.93 23.36-31.93L23.36-31.93Q26.32-31.93 28.37-30.47L28.37-30.47Q30.59-28.81 30.59-25.88Z" class="wordmark-text-0" data-fill-palette-color="primary" opacity="1" transform="matrix(1,0,0,1,0,0)"/></svg></g></svg></g></svg></g></svg></g></svg></g></svg><rect width="142.266" height="154.5" fill="none" stroke="none" visibility="hidden"/></g></svg></g></svg>