<svg xmlns="http://www.w3.org/2000/svg" xmlns:svgjs="http://svgjs.dev/svgjs" xmlns:xlink="http://www.w3.org/1999/xlink" width="2000" height="287" version="1.1" viewBox="0 0 2000 287"><g transform="matrix(1,0,0,1,-1.2121212121212466,0.31218307330115636)"><svg xmlns="http://www.w3.org/2000/svg" xmlns:xlink="http://www.w3.org/1999/xlink" width="2000" height="287" data-background-color="#ffffff" preserveAspectRatio="xMidYMid meet" viewBox="0 0 396 57"><g id="tight-bounds" transform="matrix(1,0,0,1,0.2400000000000091,-0.06200151630022788)"><svg width="395.52" height="57.124" viewBox="0 0 395.52 57.124"><g><svg width="395.52" height="57.124" viewBox="0 0 395.52 57.124"><g><svg width="395.52" height="57.124" viewBox="0 0 395.52 57.124"><g id="textblocktransform"><svg id="textblock" width="395.52" height="57.124" viewBox="0 0 395.52 57.124"><g><svg width="395.52" height="57.124" viewBox="0 0 395.52 57.124"><g transform="matrix(1,0,0,1,0,0)"><svg width="395.52" height="57.124" data-palette-color="#1eb854" viewBox="0.78 -36.45 257.6 37.21"><path id="text-0" fill="#1eb854" d="M30.59-25.88L30.59-25.88 30.59-1.61Q27.86 0.44 23.58 0.44L23.58 0.44Q20.29 0.44 18.36-0.9L18.36-0.9Q16.33-2.27 16.33-4.86L16.33-4.86 16.33-9.69 18.07-9.69Q19.07-9.69 19.32-9.95 19.58-10.21 19.58-10.79L19.58-10.79 11.91-10.79Q11.91-10.21 12.13-9.95 12.35-9.69 13.18-9.69L13.18-9.69 15.04-9.69 15.04-1.61Q13.16-0.39 11.47 0.02 9.79 0.44 8.03 0.44L8.03 0.44Q4.74 0.44 2.81-0.9L2.81-0.9Q0.78-2.27 0.78-4.86L0.78-4.86 0.78-29.15Q2.05-30.49 3.92-31.21 5.79-31.93 7.81-31.93L7.81-31.93Q10.77-31.93 12.82-30.47L12.82-30.47Q15.04-28.81 15.04-25.88L15.04-25.88 15.04-21.53 18.14-21.53Q18.14-22.17 17.91-22.4 17.68-22.63 17.16-22.63L17.16-22.63 16.33-22.63 16.33-29.15Q17.6-30.49 19.47-31.21 21.34-31.93 23.36-31.93L23.36-31.93Q26.32-31.93 28.37-30.47L28.37-30.47Q30.59-28.81 30.59-25.88ZM45.14-21.97L45.14-21.97 45.14-12.3Q45.14-8.67 46.9-7.57L46.9-7.57Q46.92-7.45 46.92-7.1L46.92-7.1 46.92-6.67Q46.92-3.08 44.97-1.27L44.97-1.27Q43.16 0.44 40.15 0.44 37.13 0.44 35.18-1.27L35.18-1.27Q32.71-3.44 32.71-7.62L32.71-7.62 32.71-23.49Q33.15-23.8 33.66-24 34.18-24.19 34.74-24.49L34.74-24.49Q33.69-25.02 32.83-26.35 31.98-27.69 31.98-29.47L31.98-29.47Q31.98-32.54 34.01-34.5 36.03-36.45 38.97-36.45 41.92-36.45 43.91-34.46 45.9-32.47 45.9-29.47L45.9-29.47Q45.9-27.05 44.38-25.23 42.87-23.41 40.7-22.95L40.7-22.95Q40.7-22.02 41.4-22.02L41.4-22.02Q42.65-22.02 43.94-23L43.94-23Q44.92-22.24 45.14-21.97ZM54.9 0.32L54.9 0.32Q52 0.32 50.26-0.73L50.26-0.73Q48.33-1.83 48.33-3.98L48.33-3.98 48.33-16.55Q46.89-18.58 46.89-21.55 46.89-24.51 48.33-26.68L48.33-26.68 52.07-26.68Q54.95-26.68 56.2-24.83L56.2-24.83Q55.59-24.15 55.12-23.1 54.66-22.05 54.66-21.59 54.66-21.14 54.89-20.92 55.12-20.7 55.56-20.7L55.56-20.7Q56.42-24.1 58.81-25.68L58.81-25.68Q60.79-27.03 63.69-27.03L63.69-27.03Q67.3-27.03 69.36-25.49L69.36-25.49Q70.09-23.54 70.09-20.72 70.09-17.9 68.96-15.6L68.96-15.6Q68.13-15.16 66.67-14.86 65.2-14.55 63.72-14.55 62.23-14.55 61.04-14.76 59.86-14.97 59.32-15.14L59.32-15.14Q59.13-14.94 59.13-14.58 59.13-14.21 59.6-14.03 60.08-13.84 61.2-13.62L61.2-13.62 61.2-1.37Q58.54 0.32 54.9 0.32ZM85.17 0.76L85.17 0.76Q78.41 0.76 74.5-3L74.5-3Q70.5-6.79 70.5-13.37 70.5-19.95 74.63-23.8L74.63-23.8Q78.43-27.39 84.27-27.39 90.1-27.39 93.63-24.18 97.16-20.97 97.16-16.28L97.16-16.28Q97.16-12.11 94.26-9.99L94.26-9.99Q91.57-7.98 86.93-7.98L86.93-7.98Q83.46-7.98 81.07-9.42L81.07-9.42Q80.88-9.28 80.88-8.89L80.88-8.89Q80.88-8.15 82.81-7.54L82.81-7.54Q84.73-6.88 87.19-6.88 89.64-6.88 91.66-7.51 93.67-8.13 94.89-8.98L94.89-8.98Q95.48-8.47 95.83-7.09 96.18-5.71 96.18-4.58 96.18-3.44 95.96-2.56L95.96-2.56Q94.06-0.95 92.06-0.27L92.06-0.27Q89.23 0.76 85.17 0.76ZM84.86-15.77L84.86-15.77Q86.08-15.77 86.08-16.7L86.08-16.7Q86.08-17.58 84.78-17.58 83.49-17.58 83.29-16.19L83.29-16.19Q83.98-15.77 84.86-15.77ZM128.24-25.88L128.24-25.88 128.24-1.61Q125.5 0.44 121.23 0.44L121.23 0.44Q117.93 0.44 116.01-0.9L116.01-0.9Q113.98-2.27 113.98-4.86L113.98-4.86 113.98-9.69 115.71-9.69Q116.71-9.69 116.97-9.95 117.23-10.21 117.23-10.79L117.23-10.79 109.56-10.79Q109.56-10.21 109.78-9.95 110-9.69 110.83-9.69L110.83-9.69 112.69-9.69 112.69-1.61Q110.81-0.39 109.12 0.02 107.44 0.44 105.68 0.44L105.68 0.44Q102.38 0.44 100.45-0.9L100.45-0.9Q98.43-2.27 98.43-4.86L98.43-4.86 98.43-29.15Q99.7-30.49 101.56-31.21 103.43-31.93 105.46-31.93L105.46-31.93Q108.41-31.93 110.46-30.47L110.46-30.47Q112.69-28.81 112.69-25.88L112.69-25.88 112.69-21.53 115.79-21.53Q115.79-22.17 115.55-22.4 115.32-22.63 114.81-22.63L114.81-22.63 113.98-22.63 113.98-29.15Q115.25-30.49 117.12-31.21 118.98-31.93 121.01-31.93L121.01-31.93Q123.96-31.93 126.02-30.47L126.02-30.47Q128.24-28.81 128.24-25.88ZM154.6-16.87L154.6-12.08Q154.6-10.33 154.99-9.25 155.38-8.18 156.36-7.57L156.36-7.57Q156.38-7.45 156.38-7.1L156.38-7.1 156.38-6.67Q156.38-3.2 154.28-1.27L154.28-1.27Q152.43 0.44 149.69 0.44L149.69 0.44Q147.84 0.44 146.3-0.44 144.76-1.32 144.1-2.98L144.1-2.98Q143.27-2.98 143.27-2.17L143.27-2.17Q143.27-1.49 144.13-0.63L144.13-0.63Q142.54 0.44 139.34 0.44L139.34 0.44Q134.83 0.44 132.13-2.01 129.43-4.47 129.43-8.87 129.43-13.28 132.29-15.7L132.29-15.7Q134.9-17.87 139.05-17.87L139.05-17.87Q140.47-17.87 141.78-17.68L141.78-17.68Q142.66-17.5 142.74-17.48L142.74-17.48Q142.81-17.72 142.81-17.9L142.81-17.9Q142.81-18.53 141.74-18.75 140.66-18.97 138.93-18.97L138.93-18.97Q135.24-18.97 132.63-17.48L132.63-17.48Q131.43-19.51 131.43-22.61L131.43-22.61Q131.43-24.37 131.87-25.22L131.87-25.22Q133.63-26.03 136.34-26.65 139.05-27.27 142.05-27.27L142.05-27.27Q148.25-27.27 151.43-24.56 154.6-21.85 154.6-16.87L154.6-16.87ZM141.93-10.89L141.93-10.89Q140.91-10.89 140.91-9.96L140.91-9.96Q140.91-9.08 142.1-9.08L142.1-9.08Q142.93-9.08 143.32-9.48 143.71-9.89 143.71-10.89L143.71-10.89Q143.71-10.89 141.93-10.89ZM164.29 0.32L164.29 0.32Q161.39 0.32 159.65-0.73L159.65-0.73Q157.72-1.83 157.72-3.98L157.72-3.98 157.72-16.55Q156.28-18.58 156.28-21.55 156.28-24.51 157.72-26.68L157.72-26.68 161.46-26.68Q164.34-26.68 165.59-24.83L165.59-24.83Q164.98-24.15 164.51-23.1 164.05-22.05 164.05-21.59 164.05-21.14 164.28-20.92 164.51-20.7 164.95-20.7L164.95-20.7Q165.81-24.1 168.2-25.68L168.2-25.68Q170.18-27.03 173.08-27.03L173.08-27.03Q176.69-27.03 178.74-25.49L178.74-25.49Q179.48-23.54 179.48-20.72 179.48-17.9 178.35-15.6L178.35-15.6Q177.52-15.16 176.06-14.86 174.59-14.55 173.11-14.55 171.62-14.55 170.43-14.76 169.25-14.97 168.71-15.14L168.71-15.14Q168.52-14.94 168.52-14.58 168.52-14.21 168.99-14.03 169.47-13.84 170.59-13.62L170.59-13.62 170.59-1.37Q167.93 0.32 164.29 0.32ZM192.56-9.99L192.56-9.99Q192.8-9.74 193.15-9.74L193.15-9.74Q193.68-9.74 193.88-10.51 194.07-11.28 194.07-13.62L194.07-13.62 194.07-16.11Q194.07-16.77 193.9-17.04 193.73-17.31 193.34-17.31 192.95-17.31 192.78-17.14L192.78-17.14 192.78-13.87Q192.78-12.4 192.56-9.99ZM193.54-29.98L193.54-29.98 193.54-27.81Q191.49-27.69 189.78-27.19 188.07-26.68 188.07-26.03L188.07-26.03Q188.07-25.63 188.46-25.39L188.46-25.39Q191.14-26.71 194.15-26.71L194.15-26.71Q199.52-26.71 202.95-23.01 206.38-19.31 206.38-13.38L206.38-13.38Q206.38-6.2 202.23-2.56L202.23-2.56Q198.44 0.76 191.94 0.76 185.43 0.76 182.36-1.76L182.36-1.76Q180.67-3.15 180.67-5.37L180.67-5.37 180.67-33.23Q181.84-33.91 183.49-34.35 185.14-34.79 186.82-34.79L186.82-34.79Q189.63-34.79 191.46-33.69L191.46-33.69Q193.54-32.4 193.54-29.98ZM220.49-13.6L220.49-13.6 220.49-9.33Q220.66-9.16 221.05-9.16 221.44-9.16 221.61-9.42 221.78-9.69 221.78-10.35L221.78-10.35 221.78-13.84Q221.78-16.19 221.59-16.96 221.39-17.72 220.85-17.72L220.85-17.72Q220.51-17.72 220.27-17.48L220.27-17.48Q220.49-15.06 220.49-13.6ZM211.36-2.78L211.36-2.78Q207.35-6.64 207.35-13.24 207.35-19.85 211.13-23.67 214.9-27.49 221.02-27.49 227.15-27.49 230.94-23.51L230.94-23.51Q234.7-19.53 234.7-13.15 234.7-6.76 231.07-3 227.45 0.76 221.22 0.76 214.99 0.76 211.36-2.78ZM243.19 0.32L243.19 0.32Q240.29 0.32 238.55-0.73L238.55-0.73Q236.62-1.83 236.62-3.98L236.62-3.98 236.62-16.55Q235.18-18.58 235.18-21.55 235.18-24.51 236.62-26.68L236.62-26.68 240.36-26.68Q243.24-26.68 244.48-24.83L244.48-24.83Q243.87-24.15 243.41-23.1 242.95-22.05 242.95-21.59 242.95-21.14 243.18-20.92 243.41-20.7 243.85-20.7L243.85-20.7Q244.7-24.1 247.1-25.68L247.1-25.68Q249.07-27.03 251.98-27.03L251.98-27.03Q255.59-27.03 257.64-25.49L257.64-25.49Q258.38-23.54 258.38-20.72 258.38-17.9 257.25-15.6L257.25-15.6Q256.42-15.16 254.96-14.86 253.49-14.55 252-14.55 250.51-14.55 249.33-14.76 248.15-14.97 247.61-15.14L247.61-15.14Q247.41-14.94 247.41-14.58 247.41-14.21 247.89-14.03 248.37-13.84 249.49-13.62L249.49-13.62 249.49-1.37Q246.83 0.32 243.19 0.32Z" class="wordmark-text-0" data-fill-palette-color="primary" opacity="1" transform="matrix(1,0,0,1,0,0)"/></svg></g></svg></g></svg></g></svg></g></svg></g></svg><rect width="395.52" height="57.124" fill="none" stroke="none" visibility="hidden"/></g></svg></g></svg>